<?xml version="1.0" encoding="UTF-8" standalone="no"?>
<svg
   xmlns:dc="http://purl.org/dc/elements/1.1/"
   xmlns:cc="http://creativecommons.org/ns#"
   xmlns:rdf="http://www.w3.org/1999/02/22-rdf-syntax-ns#"
   xmlns:svg="http://www.w3.org/2000/svg"
   xmlns="http://www.w3.org/2000/svg"
   xmlns:sodipodi="http://sodipodi.sourceforge.net/DTD/sodipodi-0.dtd"
   xmlns:inkscape="http://www.inkscape.org/namespaces/inkscape"
   width="128"
   height="167.51758"
   viewBox="0 0 33.866665 44.32236"
   version="1.1"
   id="svg8"
   inkscape:version="1.0.1 (3bc2e813f5, 2020-09-07)"
   sodipodi:docname="arrow-indicator.svg">
  <defs
     id="defs2" />
  <sodipodi:namedview
     id="base"
     pagecolor="#ffffff"
     bordercolor="#666666"
     borderopacity="1.0"
     inkscape:pageopacity="0.0"
     inkscape:pageshadow="2"
     inkscape:zoom="0.7"
     inkscape:cx="62.193064"
     inkscape:cy="76.527461"
     inkscape:document-units="px"
     inkscape:current-layer="layer1"
     inkscape:document-rotation="0"
     showgrid="false"
     units="px"
     inkscape:window-width="1366"
     inkscape:window-height="706"
     inkscape:window-x="-8"
     inkscape:window-y="-8"
     inkscape:window-maximized="1"
     fit-margin-top="0"
     fit-margin-left="0"
     fit-margin-right="0"
     fit-margin-bottom="0" />
  <metadata
     id="metadata5">
    <rdf:RDF>
      <cc:Work
         rdf:about="">
        <dc:format>image/svg+xml</dc:format>
        <dc:type
           rdf:resource="http://purl.org/dc/dcmitype/StillImage" />
        <dc:title></dc:title>
      </cc:Work>
    </rdf:RDF>
  </metadata>
  <g
     inkscape:label="Capa 1"
     inkscape:groupmode="layer"
     id="layer1"
     transform="translate(-52.252623,-31.640446)">
    <path
       id="path1408"
       style="fill:#000000;stroke-width:2.1172;stroke-linecap:round;stroke-linejoin:round;stroke-dasharray:4.23439, 8.46879000000000026;stroke-dashoffset:10.7976;paint-order:stroke fill markers;stop-color:#000000"
       d="m 261.49023,119.58594 -37.92382,51.96679 a 63.999996,63.999996 0 0 0 -26.07618,51.55079 63.999996,63.999996 0 0 0 64,64 63.999996,63.999996 0 0 0 64,-64 63.999996,63.999996 0 0 0 -26.07617,-51.55274 z m -0.082,74.17968 a 29.337919,29.337919 0 0 1 0.082,0 29.337919,29.337919 0 0 1 29.33789,29.3379 29.337919,29.337919 0 0 1 -29.33789,29.33789 29.337919,29.337919 0 0 1 -29.33789,-29.33789 29.337919,29.337919 0 0 1 29.25586,-29.3379 z"
       transform="scale(0.26458333)" />
  </g>
</svg>
