<?xml version="1.0" encoding="UTF-8" standalone="no"?>
<svg
   xmlns:dc="http://purl.org/dc/elements/1.1/"
   xmlns:cc="http://creativecommons.org/ns#"
   xmlns:rdf="http://www.w3.org/1999/02/22-rdf-syntax-ns#"
   xmlns:svg="http://www.w3.org/2000/svg"
   xmlns="http://www.w3.org/2000/svg"
   xmlns:sodipodi="http://sodipodi.sourceforge.net/DTD/sodipodi-0.dtd"
   xmlns:inkscape="http://www.inkscape.org/namespaces/inkscape"
   id="svg3891"
   sodipodi:docname="snowflake.svg"
   viewBox="0 0 61.2598 53.320122"
   version="1.1"
   inkscape:version="1.0.1 (3bc2e813f5, 2020-09-07)"
   width="61.2598"
   height="53.320122">
  <defs
     id="defs3893" />
  <sodipodi:namedview
     id="base"
     bordercolor="#666666"
     inkscape:pageshadow="2"
     inkscape:guide-bbox="true"
     pagecolor="#ffffff"
     inkscape:window-height="706"
     inkscape:grid-bbox="true"
     inkscape:window-maximized="1"
     inkscape:zoom="5.6568545"
     inkscape:window-x="-8"
     showgrid="true"
     borderopacity="1.0"
     inkscape:current-layer="layer1"
     inkscape:cx="20.649303"
     inkscape:cy="31.589782"
     showguides="true"
     inkscape:window-y="-8"
     inkscape:window-width="1366"
     inkscape:pageopacity="0.0"
     inkscape:document-units="px"
     inkscape:document-rotation="0"
     fit-margin-top="0"
     fit-margin-left="0"
     fit-margin-right="0"
     fit-margin-bottom="0" />
  <g
     id="layer1"
     inkscape:label="Layer 1"
     inkscape:groupmode="layer"
     transform="translate(-1.6316,-5.65358)">
    <path
       id="rect2830"
       style="fill:#00ccff;stroke:none;stroke-width:0.64274"
       d="m 16.896,5.6557 -1.256,2.7474 3.6487,6.3417 -6.6458,-0.0181 -1.4624,2.8596 1.2922,2.2587 9.9107,0.2751 5.6359,9.784 -11.203,0.0072 -4.6948,-8.224 -3.236,-0.0036 -1.1366,2.3492 3.3627,5.8494 H 3.2134 l -1.5818,2.6351 1.5818,2.7546 h 7.4312 l -3.2179,5.0893 1.3429,2.722 3.0333,0.03982 4.7201,-7.8511 h 11.384 l -5.321,9.2375 -9.4691,-0.03982 -1.618,2.8016 1.4624,2.1573 6.7507,0.0072 -3.9491,6.8449 1.4913,2.6858 3.1745,0.0072 3.7174,-6.4394 2.798,5.3318 3.0297,0.19908 1.5529,-2.6098 -4.445,-8.014 5.5237,-9.5741 5.1508,8.9443 -4.7889,8.1697 1.6108,2.8089 2.5989,-0.18822 3.3953,-5.8313 3.9382,6.8485 3.0731,0.05792 1.5999,-2.7437 -3.7066,-6.4431 6.0159,0.25338 1.6904,-2.5229 -1.4768,-2.6496 L 42.5449,44.3938 37.3,35.2722 h 10.671 l 4.5282,7.8656 2.8306,-0.02172 1.5927,-2.494 -2.9863,-5.3499 h 7.1996 l 1.7556,-2.9283 -1.7556,-2.4614 -7.3154,0.0036 3.3265,-5.7553 -1.7483,-2.6894 -2.6026,-0.0072 -5.1762,8.4556 -10.414,0.0072 5.5924,-9.6899 9.0782,0.0072 1.3936,-2.4614 -1.361,-2.627 -6.129,-0.09 3.598,-6.2367 -1.657,-2.9827 -3.008,0.2896 -3.653,6.3418 -3.323,-5.759 -3.203,0.1701 -1.307,2.2515 4.735,8.7094 -5.354,9.291 -5.737,-9.979 4.565,-7.8513 -1.43,-2.4397 -2.954,-0.1375 -3.156,5.2555 -3.587,-6.2437 -3.414,-0.0616 z" />
  </g>
  <metadata
     id="metadata17">
    <rdf:RDF>
      <cc:Work>
        <dc:format>image/svg+xml</dc:format>
        <dc:type
           rdf:resource="http://purl.org/dc/dcmitype/StillImage" />
        <cc:license
           rdf:resource="http://creativecommons.org/publicdomain/zero/1.0/" />
        <dc:publisher>
          <cc:Agent
             rdf:about="http://openclipart.org/">
            <dc:title>Openclipart</dc:title>
          </cc:Agent>
        </dc:publisher>
        <dc:title>Snowflake</dc:title>
        <dc:date>2010-03-10T14:58:58</dc:date>
        <dc:description />
        <dc:source>https://openclipart.org/detail/30829/snowflake-by-bocian</dc:source>
        <dc:creator>
          <cc:Agent>
            <dc:title>bocian</dc:title>
          </cc:Agent>
        </dc:creator>
        <dc:subject>
          <rdf:Bag>
            <rdf:li>cold</rdf:li>
            <rdf:li>snow</rdf:li>
            <rdf:li>snowflake</rdf:li>
            <rdf:li>weather</rdf:li>
            <rdf:li>winter</rdf:li>
            <rdf:li>zima</rdf:li>
            <rdf:li>?nieg</rdf:li>
            <rdf:li>?nie?ynka</rdf:li>
          </rdf:Bag>
        </dc:subject>
      </cc:Work>
      <cc:License
         rdf:about="http://creativecommons.org/publicdomain/zero/1.0/">
        <cc:permits
           rdf:resource="http://creativecommons.org/ns#Reproduction" />
        <cc:permits
           rdf:resource="http://creativecommons.org/ns#Distribution" />
        <cc:permits
           rdf:resource="http://creativecommons.org/ns#DerivativeWorks" />
      </cc:License>
    </rdf:RDF>
  </metadata>
</svg>
