<?xml version="1.0" encoding="UTF-8" standalone="no"?>
<svg
   xmlns:dc="http://purl.org/dc/elements/1.1/"
   xmlns:cc="http://creativecommons.org/ns#"
   xmlns:rdf="http://www.w3.org/1999/02/22-rdf-syntax-ns#"
   xmlns:svg="http://www.w3.org/2000/svg"
   xmlns="http://www.w3.org/2000/svg"
   xmlns:xlink="http://www.w3.org/1999/xlink"
   xmlns:sodipodi="http://sodipodi.sourceforge.net/DTD/sodipodi-0.dtd"
   xmlns:inkscape="http://www.inkscape.org/namespaces/inkscape"
   width="46"
   height="94"
   viewBox="0 0 46 94"
   id="svg2"
   version="1.1"
   inkscape:version="1.0.1 (3bc2e813f5, 2020-09-07)"
   sodipodi:docname="thermometer.svg">
  <defs
     id="defs4" />
  <sodipodi:namedview
     id="base"
     pagecolor="#ffffff"
     bordercolor="#666666"
     borderopacity="1.0"
     inkscape:pageopacity="0.0"
     inkscape:pageshadow="2"
     inkscape:zoom="1.7782747"
     inkscape:cx="192.07216"
     inkscape:cy="134.16531"
     inkscape:document-units="px"
     inkscape:current-layer="layer1"
     showgrid="false"
     showguides="true"
     inkscape:guide-bbox="true"
     inkscape:snap-grids="true"
     inkscape:window-width="1366"
     inkscape:window-height="706"
     inkscape:window-x="-8"
     inkscape:window-y="-8"
     inkscape:window-maximized="1"
     inkscape:snap-page="false"
     inkscape:snap-to-guides="true"
     units="px"
     inkscape:document-rotation="0">
    <sodipodi:guide
       position="59.886141,800.00002"
       orientation="0,1"
       id="guide8349"
       inkscape:label=""
       inkscape:color="rgb(0,0,255)" />
    <sodipodi:guide
       position="258.49588,1000"
       orientation="0,1"
       id="guide8351"
       inkscape:label=""
       inkscape:color="rgb(0,0,255)" />
    <inkscape:grid
       type="xygrid"
       id="grid8368" />
  </sodipodi:namedview>
  <metadata
     id="metadata7">
    <rdf:RDF>
      <cc:Work
         rdf:about="">
        <dc:format>image/svg+xml</dc:format>
        <dc:type
           rdf:resource="http://purl.org/dc/dcmitype/StillImage" />
        <dc:title />
      </cc:Work>
    </rdf:RDF>
  </metadata>
  <g
     inkscape:label="Ebene 1"
     inkscape:groupmode="layer"
     id="layer1"
     transform="translate(0,-958.36214)">
    <use
       x="0"
       y="0"
       xlink:href="#g8408"
       id="use8412"
       transform="matrix(-0.99999621,0,0,1,183.03467,790.10162)"
       width="100%"
       height="100%" />
    <use
       x="0"
       y="0"
       xlink:href="#g8394"
       id="use8402"
       transform="translate(-65.756235,790.10162)"
       width="100%"
       height="100%" />
    <use
       x="0"
       y="0"
       xlink:href="#path3379-7-3-6-2"
       id="use8486"
       transform="translate(56.243765,790.10162)"
       width="100%"
       height="100%" />
    <use
       x="0"
       y="0"
       xlink:href="#text3355-81-8"
       id="use8488"
       transform="translate(98.243765,790.10162)"
       width="100%"
       height="100%" />
    <use
       x="0"
       y="0"
       xlink:href="#path5770-7-8-8"
       id="use8490"
       transform="translate(28.243765,790.10162)"
       width="100%"
       height="100%" />
    <use
       x="0"
       y="0"
       xlink:href="#g8408"
       id="use8492"
       transform="translate(230.24376,790.10162)"
       width="100%"
       height="100%" />
    <use
       x="0"
       y="0"
       xlink:href="#use8412"
       id="use8494"
       transform="translate(378,-1.0692717e-6)"
       width="100%"
       height="100%" />
    <use
       x="0"
       y="0"
       xlink:href="#text3355-81-8"
       id="use8496"
       transform="translate(230.24376,790.10162)"
       width="100%"
       height="100%" />
    <use
       x="0"
       y="0"
       xlink:href="#g8394"
       id="use8498"
       transform="translate(230.24376,790.10162)"
       width="100%"
       height="100%" />
    <use
       x="0"
       y="0"
       xlink:href="#path3379-7-3-6-2"
       id="use8500"
       transform="translate(230.24376,790.10162)"
       width="100%"
       height="100%" />
    <use
       x="0"
       y="0"
       xlink:href="#path5770-7-8-8"
       id="use8502"
       transform="translate(230.24376,790.10162)"
       width="100%"
       height="100%" />
    <use
       x="0"
       y="0"
       xlink:href="#use8402"
       id="use8504"
       transform="translate(378,-1.0692717e-6)"
       width="100%"
       height="100%" />
    <use
       x="0"
       y="0"
       xlink:href="#use8486"
       id="use8506"
       transform="translate(378,-1.0692717e-6)"
       width="100%"
       height="100%" />
    <use
       x="0"
       y="0"
       xlink:href="#use8488"
       id="use8508"
       transform="translate(378,-1.0692717e-6)"
       width="100%"
       height="100%" />
    <use
       x="0"
       y="0"
       xlink:href="#use8490"
       id="use8510"
       transform="translate(378,-1.0692717e-6)"
       width="100%"
       height="100%" />
    <path
       style="opacity:0.8;fill:#000000;stroke:none;stroke-width:3.77637601;stroke-miterlimit:4;stroke-dasharray:none"
       d="m 21.474387,958.3621 c -6.41557,0 -11.6916606,4.69576 -11.6597626,10.44389 l 0.02544,3.73932 -5.2507503,0 0,3.95231 5.2724483,0 0.02953,4.94641 -5.0510092,0 0,3.95231 5.0728082,0 0.02953,5.93351 -5.1054508,0 0,3.95581 5.1272908,0 0.02544,4.6943 -5.0292467,0 0,3.95524 5.0509913,0 0.03952,6.809 c -6.2703329,4.2391 -10.0323796,11.2743 -10.051166,18.8023 5.588e-4,12.6022 10.297847,22.8156 23,22.8156 12.702156,0 22.99939,-10.2134 22.999999,-22.8156 -0.01499,-7.647 -3.886124,-14.78 -10.316279,-18.9967 l 0,-41.74381 c 0,-5.74813 -5.244067,-10.44389 -11.659712,-10.44389 l -2.549138,0 z m 0,4.53551 2.549143,0 c 3.697901,0 6.597862,2.59552 6.597862,5.90838 l 0,44.28701 0.145067,0 c -0.01,0.2414 -0.06002,0.4724 -0.134617,0.6918 5.907483,2.9512 9.636555,8.9512 9.644474,15.513 -2.49e-4,9.6043 -7.847206,17.39 -17.527809,17.39 -9.680605,0 -17.5275561,-7.7857 -17.5277619,-17.39 0.0011,-6.5664 3.7303073,-12.5721 9.6408579,-15.527 -0.01544,-0.055 -0.02953,-0.1105 -0.04453,-0.1658 0.02544,0 0.03952,0 0.06002,0 l 0,-44.78093 c 0,-3.31285 2.8964,-5.90837 6.594305,-5.90837 z m -0.261602,32.56086 c -1.314401,0 -2.371124,1.04835 -2.371124,2.3524 l 0,19.67433 c -5.146855,1.6745 -8.628156,6.4387 -8.631381,11.8126 1.03e-4,6.8708 5.613502,12.4401 12.538576,12.4401 6.925036,0 12.538435,-5.5693 12.538485,-12.4401 -0.0025,-5.4849 -3.627985,-10.3213 -8.921845,-11.9033 l 0,-19.58363 c 0,-1.30405 -1.056674,-2.3524 -2.371179,-2.3524 l -2.781532,0 z"
       id="thermometer"
       inkscape:connector-curvature="0" />
  </g>
</svg>
